<svg width="205" height="8" viewBox="0 0 205 8" fill="none" xmlns="http://www.w3.org/2000/svg">
<path d="M0.359375 7.95797L3.80403 0.588644H4.34961L7.79426 7.95797H7.20589L3.95379 0.925527H4.18914L0.947747 7.95797H0.359375ZM1.6217 5.88403L1.80356 5.43134H6.28589L6.46775 5.88403H1.6217Z" fill="white"/>
<path d="M11.8709 7.95797V0.146484H12.4058V7.95797H11.8709Z" fill="white"/>
<path d="M19.1015 8.00008C18.6094 8.00008 18.2315 7.86673 17.9676 7.60003C17.7108 7.33333 17.5825 6.96837 17.5825 6.50516V1.26241H18.1173V6.45252C18.1173 6.80344 18.2065 7.07365 18.3848 7.26315C18.5631 7.45264 18.8198 7.54739 19.155 7.54739C19.5045 7.54739 19.7933 7.44563 20.0215 7.24209L20.2462 7.61056C20.1035 7.74391 19.9288 7.84217 19.722 7.90533C19.5223 7.9685 19.3155 8.00008 19.1015 8.00008ZM16.5555 2.91525V2.46256H19.8932V2.91525H16.5555Z" fill="white"/>
<path d="M26.6956 8.00008C26.1322 8.00008 25.633 7.88077 25.198 7.64214C24.7701 7.40352 24.4313 7.07365 24.1817 6.65255C23.9392 6.23144 23.818 5.75068 23.818 5.21026C23.818 4.66283 23.9321 4.18207 24.1603 3.76798C24.3956 3.34688 24.7166 3.01701 25.1231 2.77839C25.5296 2.53976 25.986 2.42045 26.4924 2.42045C26.9987 2.42045 27.4516 2.53625 27.851 2.76786C28.2575 2.99947 28.5749 3.32582 28.8031 3.74693C29.0384 4.16101 29.1561 4.64177 29.1561 5.18921C29.1561 5.21026 29.1525 5.23483 29.1454 5.2629C29.1454 5.28396 29.1454 5.30852 29.1454 5.3366H24.2138V4.92602H28.8566L28.6426 5.12604C28.6497 4.69792 28.557 4.31542 28.3645 3.97853C28.179 3.63463 27.9259 3.36793 27.6049 3.17844C27.284 2.98192 26.9132 2.88366 26.4924 2.88366C26.0787 2.88366 25.7079 2.98192 25.3798 3.17844C25.0589 3.36793 24.8057 3.63463 24.6203 3.97853C24.4349 4.31542 24.3421 4.70143 24.3421 5.13657V5.23132C24.3421 5.6805 24.442 6.08055 24.6417 6.43147C24.8485 6.77537 25.1302 7.04558 25.4868 7.24209C25.8434 7.43159 26.2499 7.52634 26.7063 7.52634C27.0629 7.52634 27.3945 7.46317 27.7012 7.33684C28.015 7.21051 28.2789 7.0175 28.4928 6.75782L28.8031 7.10523C28.5606 7.40001 28.2539 7.6246 27.8831 7.779C27.5194 7.92639 27.1235 8.00008 26.6956 8.00008Z" fill="white"/>
<path d="M33.6992 7.95797V2.46256H34.2127V3.96801L34.1592 3.79956C34.3161 3.3574 34.58 3.01701 34.9508 2.77839C35.3217 2.53976 35.7852 2.42045 36.3415 2.42045V2.9363C36.3201 2.9363 36.2987 2.9363 36.2773 2.9363C36.2559 2.92928 36.2345 2.92577 36.2131 2.92577C35.5927 2.92577 35.1077 3.11878 34.7583 3.50479C34.4088 3.88379 34.2341 4.41368 34.2341 5.09446V7.95797H33.6992Z" fill="white"/>
<path d="M43.4316 2.42045C43.888 2.42045 44.2838 2.50818 44.619 2.68364C44.9613 2.85208 45.2252 3.11176 45.4106 3.46268C45.6032 3.80658 45.6995 4.23471 45.6995 4.74705V7.95797H45.1646V4.78916C45.1646 4.17154 45.0041 3.70131 44.6832 3.37846C44.3694 3.05561 43.9272 2.89419 43.3567 2.89419C42.9216 2.89419 42.5437 2.98192 42.2227 3.15738C41.9018 3.33284 41.6557 3.57849 41.4846 3.89431C41.3205 4.21014 41.2385 4.58914 41.2385 5.03129V7.95797H40.7037V2.46256H41.2171V3.98906L41.1423 3.82062C41.3134 3.38548 41.5951 3.04509 41.9874 2.79944C42.3796 2.54678 42.861 2.42045 43.4316 2.42045Z" fill="white"/>
<path d="M54.3095 7.95797V6.70518L54.2881 6.51569V4.45228C54.2881 3.93993 54.1455 3.55041 53.8602 3.28371C53.5821 3.01701 53.172 2.88366 52.63 2.88366C52.2449 2.88366 51.8847 2.95034 51.5495 3.08369C51.2214 3.21002 50.9397 3.37495 50.7044 3.57849L50.437 3.19949C50.7151 2.95385 51.0503 2.76435 51.4425 2.631C51.8348 2.49063 52.2449 2.42045 52.6728 2.42045C53.3645 2.42045 53.8959 2.5924 54.2667 2.9363C54.6376 3.2802 54.823 3.79255 54.823 4.47333V7.95797H54.3095ZM52.2983 8.00008C51.8847 8.00008 51.5245 7.93691 51.2179 7.81058C50.9183 7.67723 50.6866 7.49125 50.5225 7.25262C50.3656 7.01399 50.2872 6.74028 50.2872 6.43147C50.2872 6.15073 50.3514 5.89807 50.4797 5.67348C50.6152 5.44187 50.8363 5.25588 51.143 5.11552C51.4497 4.96813 51.8597 4.89444 52.3732 4.89444H54.4272V5.30501H52.3839C51.8063 5.30501 51.3997 5.41029 51.1644 5.62084C50.9362 5.83139 50.8221 6.09458 50.8221 6.41041C50.8221 6.76133 50.9576 7.04207 51.2286 7.25262C51.4996 7.46317 51.8811 7.56845 52.3732 7.56845C52.8439 7.56845 53.2397 7.46317 53.5607 7.25262C53.8887 7.04207 54.1312 6.73677 54.2881 6.33672L54.4379 6.69466C54.2881 7.09471 54.0314 7.41404 53.6676 7.65267C53.3111 7.88428 52.8546 8.00008 52.2983 8.00008Z" fill="white"/>
<path d="M61.5412 8.00008C61.0491 8.00008 60.6711 7.86673 60.4073 7.60003C60.1505 7.33333 60.0221 6.96837 60.0221 6.50516V1.26241H60.557V6.45252C60.557 6.80344 60.6462 7.07365 60.8245 7.26315C61.0028 7.45264 61.2595 7.54739 61.5947 7.54739C61.9442 7.54739 62.233 7.44563 62.4612 7.24209L62.6859 7.61056C62.5432 7.74391 62.3685 7.84217 62.1617 7.90533C61.962 7.9685 61.7552 8.00008 61.5412 8.00008ZM58.9952 2.91525V2.46256H62.3328V2.91525H58.9952Z" fill="white"/>
<path d="M67.0659 7.95797V2.46256H67.6008V7.95797H67.0659ZM67.3333 1.12555C67.2121 1.12555 67.1087 1.08344 67.0231 0.999221C66.9375 0.915 66.8947 0.816742 66.8947 0.704448C66.8947 0.585135 66.9375 0.483368 67.0231 0.399147C67.1087 0.314926 67.2121 0.272816 67.3333 0.272816C67.4617 0.272816 67.5651 0.314926 67.6436 0.399147C67.7292 0.47635 67.7719 0.574607 67.7719 0.69392C67.7719 0.813233 67.7292 0.915 67.6436 0.999221C67.5651 1.08344 67.4617 1.12555 67.3333 1.12555Z" fill="white"/>
<path d="M74.1557 7.95797L71.6417 2.46256H72.2087L74.5622 7.6632H74.3055L76.6804 2.46256H77.2259L74.7013 7.95797H74.1557Z" fill="white"/>
<path d="M83.395 8.00008C82.8316 8.00008 82.3324 7.88077 81.8973 7.64214C81.4694 7.40352 81.1306 7.07365 80.881 6.65255C80.6385 6.23144 80.5173 5.75068 80.5173 5.21026C80.5173 4.66283 80.6314 4.18207 80.8596 3.76798C81.095 3.34688 81.4159 3.01701 81.8224 2.77839C82.2289 2.53976 82.6854 2.42045 83.1917 2.42045C83.6981 2.42045 84.1509 2.53625 84.5503 2.76786C84.9568 2.99947 85.2742 3.32582 85.5024 3.74693C85.7378 4.16101 85.8555 4.64177 85.8555 5.18921C85.8555 5.21026 85.8519 5.23483 85.8447 5.2629C85.8447 5.28396 85.8447 5.30852 85.8447 5.3366H80.9131V4.92602H85.5559L85.342 5.12604C85.3491 4.69792 85.2564 4.31542 85.0638 3.97853C84.8784 3.63463 84.6252 3.36793 84.3043 3.17844C83.9834 2.98192 83.6125 2.88366 83.1917 2.88366C82.7781 2.88366 82.4072 2.98192 82.0792 3.17844C81.7582 3.36793 81.5051 3.63463 81.3196 3.97853C81.1342 4.31542 81.0415 4.70143 81.0415 5.13657V5.23132C81.0415 5.6805 81.1413 6.08055 81.341 6.43147C81.5479 6.77537 81.8296 7.04558 82.1861 7.24209C82.5427 7.43159 82.9492 7.52634 83.4057 7.52634C83.7623 7.52634 84.0939 7.46317 84.4006 7.33684C84.7144 7.21051 84.9782 7.0175 85.1922 6.75782L85.5024 7.10523C85.2599 7.40001 84.9533 7.6246 84.5824 7.779C84.2187 7.92639 83.8229 8.00008 83.395 8.00008Z" fill="white"/>
<path d="M101.758 0.588644H102.303V7.95797H101.758V0.588644ZM96.7512 7.95797H96.2056V0.588644H96.7512V7.95797ZM101.822 4.45228H96.687V3.97853H101.822V4.45228Z" fill="white"/>
<path d="M109.818 8.00008C109.283 8.00008 108.805 7.88077 108.384 7.64214C107.971 7.40352 107.639 7.07365 107.39 6.65255C107.147 6.23144 107.026 5.75068 107.026 5.21026C107.026 4.66283 107.147 4.18207 107.39 3.76798C107.639 3.34688 107.971 3.01701 108.384 2.77839C108.805 2.53976 109.283 2.42045 109.818 2.42045C110.353 2.42045 110.831 2.53976 111.251 2.77839C111.672 3.01701 112.004 3.34688 112.246 3.76798C112.489 4.18207 112.61 4.66283 112.61 5.21026C112.61 5.75068 112.489 6.23144 112.246 6.65255C112.004 7.07365 111.672 7.40352 111.251 7.64214C110.831 7.88077 110.353 8.00008 109.818 8.00008ZM109.818 7.52634C110.246 7.52634 110.631 7.43159 110.973 7.24209C111.316 7.04558 111.583 6.77186 111.776 6.42094C111.968 6.07002 112.064 5.66646 112.064 5.21026C112.064 4.74705 111.968 4.34349 111.776 3.99959C111.583 3.64867 111.316 3.37846 110.973 3.18896C110.631 2.99245 110.246 2.89419 109.818 2.89419C109.39 2.89419 109.005 2.99245 108.663 3.18896C108.327 3.37846 108.06 3.64867 107.86 3.99959C107.668 4.34349 107.571 4.74705 107.571 5.21026C107.571 5.66646 107.668 6.07002 107.86 6.42094C108.06 6.77186 108.327 7.04558 108.663 7.24209C109.005 7.43159 109.39 7.52634 109.818 7.52634Z" fill="white"/>
<path d="M124.111 2.42045C124.561 2.42045 124.949 2.50818 125.277 2.68364C125.612 2.85208 125.873 3.11176 126.058 3.46268C126.244 3.80658 126.336 4.23471 126.336 4.74705V7.95797H125.801V4.78916C125.801 4.17154 125.648 3.70131 125.341 3.37846C125.035 3.05561 124.607 2.89419 124.058 2.89419C123.637 2.89419 123.273 2.98192 122.967 3.15738C122.66 3.33284 122.425 3.57849 122.261 3.89431C122.097 4.21014 122.015 4.58914 122.015 5.03129V7.95797H121.48V4.78916C121.48 4.17154 121.326 3.70131 121.02 3.37846C120.713 3.05561 120.285 2.89419 119.736 2.89419C119.315 2.89419 118.951 2.98192 118.645 3.15738C118.338 3.33284 118.103 3.57849 117.939 3.89431C117.775 4.21014 117.693 4.58914 117.693 5.03129V7.95797H117.158V2.46256H117.671V3.97853L117.596 3.81009C117.76 3.38197 118.035 3.04509 118.42 2.79944C118.805 2.54678 119.269 2.42045 119.811 2.42045C120.367 2.42045 120.834 2.56082 121.212 2.84155C121.597 3.11527 121.84 3.52585 121.94 4.07328L121.758 3.99959C121.908 3.52936 122.189 3.15036 122.603 2.86261C123.017 2.56783 123.519 2.42045 124.111 2.42045Z" fill="white"/>
<path d="M133.701 8.00008C133.138 8.00008 132.639 7.88077 132.204 7.64214C131.776 7.40352 131.437 7.07365 131.187 6.65255C130.945 6.23144 130.824 5.75068 130.824 5.21026C130.824 4.66283 130.938 4.18207 131.166 3.76798C131.401 3.34688 131.722 3.01701 132.129 2.77839C132.535 2.53976 132.992 2.42045 133.498 2.42045C134.004 2.42045 134.457 2.53625 134.857 2.76786C135.263 2.99947 135.58 3.32582 135.809 3.74693C136.044 4.16101 136.162 4.64177 136.162 5.18921C136.162 5.21026 136.158 5.23483 136.151 5.2629C136.151 5.28396 136.151 5.30852 136.151 5.3366H131.219V4.92602H135.862L135.648 5.12604C135.655 4.69792 135.563 4.31542 135.37 3.97853C135.185 3.63463 134.931 3.36793 134.611 3.17844C134.29 2.98192 133.919 2.88366 133.498 2.88366C133.084 2.88366 132.713 2.98192 132.385 3.17844C132.064 3.36793 131.811 3.63463 131.626 3.97853C131.44 4.31542 131.348 4.70143 131.348 5.13657V5.23132C131.348 5.6805 131.448 6.08055 131.647 6.43147C131.854 6.77537 132.136 7.04558 132.492 7.24209C132.849 7.43159 133.255 7.52634 133.712 7.52634C134.069 7.52634 134.4 7.46317 134.707 7.33684C135.021 7.21051 135.284 7.0175 135.498 6.75782L135.809 7.10523C135.566 7.40001 135.26 7.6246 134.889 7.779C134.525 7.92639 134.129 8.00008 133.701 8.00008Z" fill="white"/>
<path d="M146.993 4.22067H151.048V4.70494H146.993V4.22067ZM147.057 7.95797H146.512V0.588644H151.518V1.07291H147.057V7.95797Z" fill="white"/>
<path d="M155.978 7.95797V2.46256H156.513V7.95797H155.978ZM156.245 1.12555C156.124 1.12555 156.021 1.08344 155.935 0.999221C155.849 0.915 155.807 0.816742 155.807 0.704448C155.807 0.585135 155.849 0.483368 155.935 0.399147C156.021 0.314926 156.124 0.272816 156.245 0.272816C156.374 0.272816 156.477 0.314926 156.555 0.399147C156.641 0.47635 156.684 0.574607 156.684 0.69392C156.684 0.813233 156.641 0.915 156.555 0.999221C156.477 1.08344 156.374 1.12555 156.245 1.12555Z" fill="white"/>
<path d="M164.383 2.42045C164.84 2.42045 165.236 2.50818 165.571 2.68364C165.913 2.85208 166.177 3.11176 166.362 3.46268C166.555 3.80658 166.651 4.23471 166.651 4.74705V7.95797H166.116V4.78916C166.116 4.17154 165.956 3.70131 165.635 3.37846C165.321 3.05561 164.879 2.89419 164.309 2.89419C163.873 2.89419 163.495 2.98192 163.175 3.15738C162.854 3.33284 162.608 3.57849 162.436 3.89431C162.272 4.21014 162.19 4.58914 162.19 5.03129V7.95797H161.656V2.46256H162.169V3.98906L162.094 3.82062C162.265 3.38548 162.547 3.04509 162.939 2.79944C163.331 2.54678 163.813 2.42045 164.383 2.42045Z" fill="white"/>
<path d="M175.261 7.95797V6.70518L175.24 6.51569V4.45228C175.24 3.93993 175.097 3.55041 174.812 3.28371C174.534 3.01701 174.124 2.88366 173.582 2.88366C173.197 2.88366 172.837 2.95034 172.501 3.08369C172.173 3.21002 171.892 3.37495 171.656 3.57849L171.389 3.19949C171.667 2.95385 172.002 2.76435 172.394 2.631C172.787 2.49063 173.197 2.42045 173.625 2.42045C174.316 2.42045 174.848 2.5924 175.219 2.9363C175.589 3.2802 175.775 3.79255 175.775 4.47333V7.95797H175.261ZM173.25 8.00008C172.837 8.00008 172.476 7.93691 172.17 7.81058C171.87 7.67723 171.638 7.49125 171.474 7.25262C171.317 7.01399 171.239 6.74028 171.239 6.43147C171.239 6.15073 171.303 5.89807 171.432 5.67348C171.567 5.44187 171.788 5.25588 172.095 5.11552C172.402 4.96813 172.812 4.89444 173.325 4.89444H175.379V5.30501H173.336C172.758 5.30501 172.352 5.41029 172.116 5.62084C171.888 5.83139 171.774 6.09458 171.774 6.41041C171.774 6.76133 171.909 7.04207 172.18 7.25262C172.451 7.46317 172.833 7.56845 173.325 7.56845C173.796 7.56845 174.192 7.46317 174.513 7.25262C174.841 7.04207 175.083 6.73677 175.24 6.33672L175.39 6.69466C175.24 7.09471 174.983 7.41404 174.619 7.65267C174.263 7.88428 173.806 8.00008 173.25 8.00008Z" fill="white"/>
<path d="M183.595 2.42045C184.051 2.42045 184.447 2.50818 184.782 2.68364C185.125 2.85208 185.389 3.11176 185.574 3.46268C185.767 3.80658 185.863 4.23471 185.863 4.74705V7.95797H185.328V4.78916C185.328 4.17154 185.167 3.70131 184.847 3.37846C184.533 3.05561 184.091 2.89419 183.52 2.89419C183.085 2.89419 182.707 2.98192 182.386 3.15738C182.065 3.33284 181.819 3.57849 181.648 3.89431C181.484 4.21014 181.402 4.58914 181.402 5.03129V7.95797H180.867V2.46256H181.381V3.98906L181.306 3.82062C181.477 3.38548 181.758 3.04509 182.151 2.79944C182.543 2.54678 183.024 2.42045 183.595 2.42045Z" fill="white"/>
<path d="M193.168 8.00008C192.626 8.00008 192.141 7.88077 191.713 7.64214C191.292 7.40352 190.957 7.07365 190.707 6.65255C190.465 6.23144 190.344 5.75068 190.344 5.21026C190.344 4.66283 190.465 4.17856 190.707 3.75745C190.957 3.33635 191.292 3.00999 191.713 2.77839C192.141 2.53976 192.626 2.42045 193.168 2.42045C193.617 2.42045 194.024 2.50467 194.387 2.67311C194.758 2.84155 195.058 3.09421 195.286 3.4311L194.89 3.71534C194.69 3.43461 194.441 3.22756 194.141 3.09422C193.842 2.96087 193.517 2.89419 193.168 2.89419C192.733 2.89419 192.34 2.99245 191.991 3.18896C191.649 3.37846 191.378 3.64867 191.178 3.99959C190.985 4.34349 190.889 4.74705 190.889 5.21026C190.889 5.67348 190.985 6.08055 191.178 6.43147C191.378 6.77537 191.649 7.04558 191.991 7.24209C192.34 7.43159 192.733 7.52634 193.168 7.52634C193.517 7.52634 193.842 7.45966 194.141 7.32631C194.441 7.19296 194.69 6.98592 194.89 6.70518L195.286 6.98943C195.058 7.32631 194.758 7.57898 194.387 7.74742C194.024 7.91586 193.617 8.00008 193.168 8.00008Z" fill="white"/>
<path d="M201.949 8.00008C201.386 8.00008 200.887 7.88077 200.452 7.64214C200.024 7.40352 199.685 7.07365 199.436 6.65255C199.193 6.23144 199.072 5.75068 199.072 5.21026C199.072 4.66283 199.186 4.18207 199.414 3.76798C199.649 3.34688 199.97 3.01701 200.377 2.77839C200.783 2.53976 201.24 2.42045 201.746 2.42045C202.253 2.42045 202.705 2.53625 203.105 2.76786C203.511 2.99947 203.829 3.32582 204.057 3.74693C204.292 4.16101 204.41 4.64177 204.41 5.18921C204.41 5.21026 204.406 5.23483 204.399 5.2629C204.399 5.28396 204.399 5.30852 204.399 5.3366H199.468V4.92602H204.11L203.896 5.12604C203.904 4.69792 203.811 4.31542 203.618 3.97853C203.433 3.63463 203.18 3.36793 202.859 3.17844C202.538 2.98192 202.167 2.88366 201.746 2.88366C201.333 2.88366 200.962 2.98192 200.634 3.17844C200.313 3.36793 200.06 3.63463 199.874 3.97853C199.689 4.31542 199.596 4.70143 199.596 5.13657V5.23132C199.596 5.6805 199.696 6.08055 199.896 6.43147C200.102 6.77537 200.384 7.04558 200.741 7.24209C201.097 7.43159 201.504 7.52634 201.96 7.52634C202.317 7.52634 202.648 7.46317 202.955 7.33684C203.269 7.21051 203.533 7.0175 203.747 6.75782L204.057 7.10523C203.814 7.40001 203.508 7.6246 203.137 7.779C202.773 7.92639 202.377 8.00008 201.949 8.00008Z" fill="white"/>
</svg>
