<svg width="259" height="11" viewBox="0 0 259 11" fill="none" xmlns="http://www.w3.org/2000/svg">
<path d="M0.697266 10.6428L5.0555 1.19988H5.74578L10.104 10.6428H9.35959L5.24499 1.63155H5.54275L1.44168 10.6428H0.697266ZM2.29438 7.98529L2.52447 7.40523H8.19559L8.42568 7.98529H2.29438Z" fill="white"/>
<path d="M15.2619 10.6428V0.633301H15.9386V10.6428H15.2619Z" fill="white"/>
<path d="M24.4102 10.6968C23.7876 10.6968 23.3093 10.5259 22.9755 10.1841C22.6506 9.8424 22.4882 9.37475 22.4882 8.78119V2.06323H23.165V8.71375C23.165 9.16341 23.2778 9.50965 23.5033 9.75247C23.7289 9.99529 24.0538 10.1167 24.4778 10.1167C24.92 10.1167 25.2854 9.98629 25.5742 9.72549L25.8584 10.1976C25.6779 10.3685 25.4569 10.4944 25.1952 10.5754C24.9425 10.6563 24.6809 10.6968 24.4102 10.6968ZM21.1889 4.18114V3.60108H25.4118V4.18114H21.1889Z" fill="white"/>
<path d="M34.0184 10.6968C33.3055 10.6968 32.6739 10.5439 32.1235 10.2381C31.5821 9.93233 31.1535 9.50965 30.8377 8.97005C30.5309 8.43046 30.3775 7.81442 30.3775 7.12194C30.3775 6.42046 30.5218 5.80443 30.8106 5.27382C31.1084 4.73423 31.5144 4.31154 32.0287 4.00577C32.5431 3.7 33.1205 3.54712 33.7612 3.54712C34.4018 3.54712 34.9748 3.69551 35.4801 3.99228C35.9944 4.28906 36.396 4.70725 36.6847 5.24684C36.9825 5.77745 37.1314 6.39348 37.1314 7.09496C37.1314 7.12194 37.1269 7.15341 37.1178 7.18939C37.1178 7.21637 37.1178 7.24784 37.1178 7.28382H30.8783V6.75771H36.7524L36.4817 7.01402C36.4907 6.46543 36.3734 5.9753 36.1298 5.54362C35.8952 5.10295 35.5749 4.76121 35.1688 4.51839C34.7628 4.26658 34.2936 4.14067 33.7612 4.14067C33.2378 4.14067 32.7686 4.26658 32.3536 4.51839C31.9475 4.76121 31.6272 5.10295 31.3926 5.54362C31.158 5.9753 31.0407 6.46993 31.0407 7.02751V7.14892C31.0407 7.72449 31.167 8.2371 31.4197 8.68677C31.6813 9.12744 32.0377 9.47368 32.4889 9.72549C32.9401 9.96831 33.4544 10.0897 34.0319 10.0897C34.4831 10.0897 34.9026 10.0088 35.2906 9.8469C35.6877 9.68502 36.0215 9.4377 36.2922 9.10495L36.6847 9.55012C36.3779 9.92784 35.9899 10.2156 35.5207 10.4135C35.0605 10.6023 34.5597 10.6968 34.0184 10.6968Z" fill="white"/>
<path d="M42.8794 10.6428V3.60108H43.529V5.53013L43.4614 5.31429C43.6599 4.74772 43.9937 4.31154 44.4629 4.00577C44.9322 3.7 45.5187 3.54712 46.2225 3.54712V4.20812C46.1954 4.20812 46.1683 4.20812 46.1413 4.20812C46.1142 4.19913 46.0871 4.19463 46.0601 4.19463C45.275 4.19463 44.6615 4.44195 44.2193 4.93658C43.7772 5.42221 43.5561 6.1012 43.5561 6.97355V10.6428H42.8794Z" fill="white"/>
<path d="M55.1929 3.54712C55.7704 3.54712 56.2712 3.65953 56.6953 3.88436C57.1284 4.1002 57.4623 4.43295 57.6969 4.88262C57.9405 5.32329 58.0623 5.87187 58.0623 6.52838V10.6428H57.3856V6.58234C57.3856 5.79094 57.1826 5.18839 56.7765 4.7747C56.3795 4.36101 55.8201 4.15416 55.0982 4.15416C54.5478 4.15416 54.0695 4.26658 53.6635 4.49141C53.2575 4.71624 52.9461 5.03101 52.7296 5.4357C52.5221 5.8404 52.4183 6.32604 52.4183 6.89261V10.6428H51.7415V3.60108H52.3912V5.55711L52.2965 5.34127C52.513 4.78369 52.8694 4.34752 53.3657 4.03275C53.862 3.709 54.4711 3.54712 55.1929 3.54712Z" fill="white"/>
<path d="M68.9559 10.6428V9.0375L68.9288 8.79468V6.15067C68.9288 5.49416 68.7484 4.99503 68.3874 4.65329C68.0355 4.31154 67.5167 4.14067 66.8309 4.14067C66.3437 4.14067 65.888 4.22611 65.4639 4.39698C65.0488 4.55886 64.6924 4.7702 64.3947 5.03101L64.0563 4.54537C64.4082 4.23061 64.8323 3.98779 65.3286 3.81691C65.8248 3.63705 66.3437 3.54712 66.8851 3.54712C67.7603 3.54712 68.4326 3.76745 68.9018 4.20812C69.371 4.64879 69.6056 5.3053 69.6056 6.17765V10.6428H68.9559ZM66.4114 10.6968C65.888 10.6968 65.4323 10.6158 65.0443 10.4539C64.6654 10.2831 64.3721 10.0447 64.1646 9.73898C63.966 9.43321 63.8668 9.08247 63.8668 8.68677C63.8668 8.32704 63.948 8.00328 64.1104 7.71549C64.2819 7.41872 64.5616 7.18039 64.9496 7.00053C65.3376 6.81167 65.8564 6.71724 66.5061 6.71724H69.1048V7.24335H66.5196C65.7887 7.24335 65.2744 7.37825 64.9767 7.64804C64.6879 7.91784 64.5435 8.25509 64.5435 8.65979C64.5435 9.10945 64.715 9.46918 65.0579 9.73898C65.4007 10.0088 65.8835 10.1437 66.5061 10.1437C67.1016 10.1437 67.6024 10.0088 68.0085 9.73898C68.4235 9.46918 68.7303 9.07797 68.9288 8.56536L69.1183 9.02401C68.9288 9.53663 68.604 9.94582 68.1438 10.2516C67.6927 10.5484 67.1152 10.6968 66.4114 10.6968Z" fill="white"/>
<path d="M78.1056 10.6968C77.483 10.6968 77.0048 10.5259 76.6709 10.1841C76.3461 9.8424 76.1836 9.37475 76.1836 8.78119V2.06323H76.8604V8.71375C76.8604 9.16341 76.9732 9.50965 77.1988 9.75247C77.4243 9.99529 77.7492 10.1167 78.1733 10.1167C78.6154 10.1167 78.9809 9.98629 79.2696 9.72549L79.5538 10.1976C79.3734 10.3685 79.1523 10.4944 78.8906 10.5754C78.638 10.6563 78.3763 10.6968 78.1056 10.6968ZM74.8843 4.18114V3.60108H79.1072V4.18114H74.8843Z" fill="white"/>
<path d="M85.0955 10.6428V3.60108H85.7723V10.6428H85.0955ZM85.4339 1.88786C85.2805 1.88786 85.1497 1.8339 85.0414 1.72598C84.9331 1.61806 84.879 1.49216 84.879 1.34827C84.879 1.19538 84.9331 1.06498 85.0414 0.957058C85.1497 0.849139 85.2805 0.79518 85.4339 0.79518C85.5963 0.79518 85.7271 0.849139 85.8264 0.957058C85.9347 1.05598 85.9888 1.18189 85.9888 1.33477C85.9888 1.48766 85.9347 1.61806 85.8264 1.72598C85.7271 1.8339 85.5963 1.88786 85.4339 1.88786Z" fill="white"/>
<path d="M94.0657 10.6428L90.885 3.60108H91.6023L94.58 10.2651H94.2551L97.2599 3.60108H97.9502L94.7559 10.6428H94.0657Z" fill="white"/>
<path d="M105.755 10.6968C105.043 10.6968 104.411 10.5439 103.86 10.2381C103.319 9.93233 102.89 9.50965 102.575 8.97005C102.268 8.43046 102.114 7.81442 102.114 7.12194C102.114 6.42046 102.259 5.80443 102.548 5.27382C102.845 4.73423 103.251 4.31154 103.766 4.00577C104.28 3.7 104.858 3.54712 105.498 3.54712C106.139 3.54712 106.712 3.69551 107.217 3.99228C107.731 4.28906 108.133 4.70725 108.422 5.24684C108.719 5.77745 108.868 6.39348 108.868 7.09496C108.868 7.12194 108.864 7.15341 108.855 7.18939C108.855 7.21637 108.855 7.24784 108.855 7.28382H102.615V6.75771H108.489L108.219 7.01402C108.228 6.46543 108.11 5.9753 107.867 5.54362C107.632 5.10295 107.312 4.76121 106.906 4.51839C106.5 4.26658 106.031 4.14067 105.498 4.14067C104.975 4.14067 104.506 4.26658 104.091 4.51839C103.685 4.76121 103.364 5.10295 103.13 5.54362C102.895 5.9753 102.778 6.46993 102.778 7.02751V7.14892C102.778 7.72449 102.904 8.2371 103.157 8.68677C103.418 9.12744 103.775 9.47368 104.226 9.72549C104.677 9.96831 105.191 10.0897 105.769 10.0897C106.22 10.0897 106.64 10.0088 107.028 9.8469C107.425 9.68502 107.759 9.4377 108.029 9.10495L108.422 9.55012C108.115 9.92784 107.727 10.2156 107.258 10.4135C106.798 10.6023 106.297 10.6968 105.755 10.6968Z" fill="white"/>
<path d="M128.988 1.19988H129.678V10.6428H128.988V1.19988ZM122.654 10.6428H121.964V1.19988H122.654V10.6428ZM129.069 6.15067H122.573V5.54362H129.069V6.15067Z" fill="white"/>
<path d="M139.186 10.6968C138.509 10.6968 137.905 10.5439 137.372 10.2381C136.849 9.93233 136.429 9.50965 136.114 8.97005C135.807 8.43046 135.654 7.81442 135.654 7.12194C135.654 6.42046 135.807 5.80443 136.114 5.27382C136.429 4.73423 136.849 4.31154 137.372 4.00577C137.905 3.7 138.509 3.54712 139.186 3.54712C139.863 3.54712 140.467 3.7 141 4.00577C141.532 4.31154 141.952 4.73423 142.259 5.27382C142.565 5.80443 142.719 6.42046 142.719 7.12194C142.719 7.81442 142.565 8.43046 142.259 8.97005C141.952 9.50965 141.532 9.93233 141 10.2381C140.467 10.5439 139.863 10.6968 139.186 10.6968ZM139.186 10.0897C139.727 10.0897 140.215 9.96831 140.648 9.72549C141.081 9.47368 141.419 9.12294 141.663 8.67328C141.907 8.22361 142.028 7.7065 142.028 7.12194C142.028 6.52838 141.907 6.01127 141.663 5.5706C141.419 5.12094 141.081 4.7747 140.648 4.53188C140.215 4.28007 139.727 4.15416 139.186 4.15416C138.645 4.15416 138.157 4.28007 137.724 4.53188C137.3 4.7747 136.962 5.12094 136.709 5.5706C136.466 6.01127 136.344 6.52838 136.344 7.12194C136.344 7.7065 136.466 8.22361 136.709 8.67328C136.962 9.12294 137.3 9.47368 137.724 9.72549C138.157 9.96831 138.645 10.0897 139.186 10.0897Z" fill="white"/>
<path d="M157.27 3.54712C157.839 3.54712 158.331 3.65953 158.746 3.88436C159.17 4.1002 159.499 4.43295 159.734 4.88262C159.968 5.32329 160.086 5.87187 160.086 6.52838V10.6428H159.409V6.58234C159.409 5.79094 159.215 5.18839 158.827 4.7747C158.439 4.36101 157.897 4.15416 157.203 4.15416C156.67 4.15416 156.21 4.26658 155.822 4.49141C155.434 4.71624 155.136 5.03101 154.929 5.4357C154.721 5.8404 154.617 6.32604 154.617 6.89261V10.6428H153.941V6.58234C153.941 5.79094 153.747 5.18839 153.359 4.7747C152.971 4.36101 152.429 4.15416 151.735 4.15416C151.202 4.15416 150.742 4.26658 150.354 4.49141C149.966 4.71624 149.668 5.03101 149.461 5.4357C149.253 5.8404 149.149 6.32604 149.149 6.89261V10.6428H148.473V3.60108H149.122V5.54362L149.028 5.32778C149.235 4.77919 149.582 4.34752 150.07 4.03275C150.557 3.709 151.143 3.54712 151.829 3.54712C152.533 3.54712 153.124 3.72698 153.602 4.08671C154.09 4.43745 154.396 4.96356 154.523 5.66503L154.293 5.5706C154.482 4.96805 154.839 4.48242 155.362 4.11369C155.885 3.73598 156.521 3.54712 157.27 3.54712Z" fill="white"/>
<path d="M169.404 10.6968C168.691 10.6968 168.059 10.5439 167.509 10.2381C166.967 9.93233 166.539 9.50965 166.223 8.97005C165.916 8.43046 165.763 7.81442 165.763 7.12194C165.763 6.42046 165.907 5.80443 166.196 5.27382C166.494 4.73423 166.9 4.31154 167.414 4.00577C167.928 3.7 168.506 3.54712 169.147 3.54712C169.787 3.54712 170.36 3.69551 170.865 3.99228C171.38 4.28906 171.781 4.70725 172.07 5.24684C172.368 5.77745 172.517 6.39348 172.517 7.09496C172.517 7.12194 172.512 7.15341 172.503 7.18939C172.503 7.21637 172.503 7.24784 172.503 7.28382H166.264V6.75771H172.138L171.867 7.01402C171.876 6.46543 171.759 5.9753 171.515 5.54362C171.281 5.10295 170.96 4.76121 170.554 4.51839C170.148 4.26658 169.679 4.14067 169.147 4.14067C168.623 4.14067 168.154 4.26658 167.739 4.51839C167.333 4.76121 167.013 5.10295 166.778 5.54362C166.543 5.9753 166.426 6.46993 166.426 7.02751V7.14892C166.426 7.72449 166.552 8.2371 166.805 8.68677C167.067 9.12744 167.423 9.47368 167.874 9.72549C168.325 9.96831 168.84 10.0897 169.417 10.0897C169.868 10.0897 170.288 10.0088 170.676 9.8469C171.073 9.68502 171.407 9.4377 171.678 9.10495L172.07 9.55012C171.763 9.92784 171.375 10.2156 170.906 10.4135C170.446 10.6023 169.945 10.6968 169.404 10.6968Z" fill="white"/>
<path d="M186.221 5.85389H191.351V6.47442H186.221V5.85389ZM186.302 10.6428H185.612V1.19988H191.946V1.82041H186.302V10.6428Z" fill="white"/>
<path d="M197.588 10.6428V3.60108H198.265V10.6428H197.588ZM197.927 1.88786C197.773 1.88786 197.643 1.8339 197.534 1.72598C197.426 1.61806 197.372 1.49216 197.372 1.34827C197.372 1.19538 197.426 1.06498 197.534 0.957058C197.643 0.849139 197.773 0.79518 197.927 0.79518C198.089 0.79518 198.22 0.849139 198.319 0.957058C198.428 1.05598 198.482 1.18189 198.482 1.33477C198.482 1.48766 198.428 1.61806 198.319 1.72598C198.22 1.8339 198.089 1.88786 197.927 1.88786Z" fill="white"/>
<path d="M208.223 3.54712C208.801 3.54712 209.302 3.65953 209.726 3.88436C210.159 4.1002 210.493 4.43295 210.727 4.88262C210.971 5.32329 211.093 5.87187 211.093 6.52838V10.6428H210.416V6.58234C210.416 5.79094 210.213 5.18839 209.807 4.7747C209.41 4.36101 208.85 4.15416 208.129 4.15416C207.578 4.15416 207.1 4.26658 206.694 4.49141C206.288 4.71624 205.977 5.03101 205.76 5.4357C205.552 5.8404 205.449 6.32604 205.449 6.89261V10.6428H204.772V3.60108H205.422V5.55711L205.327 5.34127C205.543 4.78369 205.9 4.34752 206.396 4.03275C206.892 3.709 207.501 3.54712 208.223 3.54712Z" fill="white"/>
<path d="M221.986 10.6428V9.0375L221.959 8.79468V6.15067C221.959 5.49416 221.779 4.99503 221.418 4.65329C221.066 4.31154 220.547 4.14067 219.861 4.14067C219.374 4.14067 218.918 4.22611 218.494 4.39698C218.079 4.55886 217.723 4.7702 217.425 5.03101L217.087 4.54537C217.439 4.23061 217.863 3.98779 218.359 3.81691C218.855 3.63705 219.374 3.54712 219.915 3.54712C220.791 3.54712 221.463 3.76745 221.932 4.20812C222.401 4.64879 222.636 5.3053 222.636 6.17765V10.6428H221.986ZM219.442 10.6968C218.918 10.6968 218.463 10.6158 218.075 10.4539C217.696 10.2831 217.402 10.0447 217.195 9.73898C216.996 9.43321 216.897 9.08247 216.897 8.68677C216.897 8.32704 216.978 8.00328 217.141 7.71549C217.312 7.41872 217.592 7.18039 217.98 7.00053C218.368 6.81167 218.887 6.71724 219.536 6.71724H222.135V7.24335H219.55C218.819 7.24335 218.305 7.37825 218.007 7.64804C217.718 7.91784 217.574 8.25509 217.574 8.65979C217.574 9.10945 217.745 9.46918 218.088 9.73898C218.431 10.0088 218.914 10.1437 219.536 10.1437C220.132 10.1437 220.633 10.0088 221.039 9.73898C221.454 9.46918 221.761 9.07797 221.959 8.56536L222.149 9.02401C221.959 9.53663 221.634 9.94582 221.174 10.2516C220.723 10.5484 220.146 10.6968 219.442 10.6968Z" fill="white"/>
<path d="M232.53 3.54712C233.108 3.54712 233.608 3.65953 234.032 3.88436C234.466 4.1002 234.799 4.43295 235.034 4.88262C235.278 5.32329 235.399 5.87187 235.399 6.52838V10.6428H234.723V6.58234C234.723 5.79094 234.52 5.18839 234.114 4.7747C233.717 4.36101 233.157 4.15416 232.435 4.15416C231.885 4.15416 231.407 4.26658 231.001 4.49141C230.595 4.71624 230.283 5.03101 230.067 5.4357C229.859 5.8404 229.755 6.32604 229.755 6.89261V10.6428H229.079V3.60108H229.728V5.55711L229.634 5.34127C229.85 4.78369 230.207 4.34752 230.703 4.03275C231.199 3.709 231.808 3.54712 232.53 3.54712Z" fill="white"/>
<path d="M244.642 10.6968C243.956 10.6968 243.342 10.5439 242.801 10.2381C242.269 9.93233 241.845 9.50965 241.529 8.97005C241.222 8.43046 241.069 7.81442 241.069 7.12194C241.069 6.42046 241.222 5.79993 241.529 5.26033C241.845 4.72074 242.269 4.30255 242.801 4.00577C243.342 3.7 243.956 3.54712 244.642 3.54712C245.21 3.54712 245.725 3.65504 246.185 3.87087C246.654 4.08671 247.033 4.41047 247.322 4.84215L246.821 5.20637C246.568 4.84664 246.252 4.58134 245.873 4.41047C245.494 4.2396 245.084 4.15416 244.642 4.15416C244.091 4.15416 243.595 4.28007 243.153 4.53188C242.72 4.7747 242.377 5.12094 242.124 5.5706C241.881 6.01127 241.759 6.52838 241.759 7.12194C241.759 7.71549 241.881 8.2371 242.124 8.68677C242.377 9.12744 242.72 9.47368 243.153 9.72549C243.595 9.96831 244.091 10.0897 244.642 10.0897C245.084 10.0897 245.494 10.0043 245.873 9.83341C246.252 9.66253 246.568 9.39723 246.821 9.0375L247.322 9.40173C247.033 9.83341 246.654 10.1572 246.185 10.373C245.725 10.5888 245.21 10.6968 244.642 10.6968Z" fill="white"/>
<path d="M255.753 10.6968C255.04 10.6968 254.408 10.5439 253.858 10.2381C253.316 9.93233 252.888 9.50965 252.572 8.97005C252.265 8.43046 252.112 7.81442 252.112 7.12194C252.112 6.42046 252.256 5.80443 252.545 5.27382C252.843 4.73423 253.249 4.31154 253.763 4.00577C254.277 3.7 254.855 3.54712 255.495 3.54712C256.136 3.54712 256.709 3.69551 257.214 3.99228C257.729 4.28906 258.13 4.70725 258.419 5.24684C258.717 5.77745 258.866 6.39348 258.866 7.09496C258.866 7.12194 258.861 7.15341 258.852 7.18939C258.852 7.21637 258.852 7.24784 258.852 7.28382H252.612V6.75771H258.487L258.216 7.01402C258.225 6.46543 258.108 5.9753 257.864 5.54362C257.629 5.10295 257.309 4.76121 256.903 4.51839C256.497 4.26658 256.028 4.14067 255.495 4.14067C254.972 4.14067 254.503 4.26658 254.088 4.51839C253.682 4.76121 253.361 5.10295 253.127 5.54362C252.892 5.9753 252.775 6.46993 252.775 7.02751V7.14892C252.775 7.72449 252.901 8.2371 253.154 8.68677C253.416 9.12744 253.772 9.47368 254.223 9.72549C254.674 9.96831 255.189 10.0897 255.766 10.0897C256.217 10.0897 256.637 10.0088 257.025 9.8469C257.422 9.68502 257.756 9.4377 258.026 9.10495L258.419 9.55012C258.112 9.92784 257.724 10.2156 257.255 10.4135C256.795 10.6023 256.294 10.6968 255.753 10.6968Z" fill="white"/>
</svg>
