<svg width="24" height="24" viewBox="0 0 24 24" fill="none" xmlns="http://www.w3.org/2000/svg">
<path d="M4.431 11.1778C4.29776 11.2696 4.18882 11.3923 4.11355 11.5355C4.03829 11.6787 3.99897 11.838 3.99897 11.9998C3.99897 12.1616 4.03829 12.3209 4.11355 12.4641C4.18882 12.6073 4.29776 12.7301 4.431 12.8218L17.431 21.8218C17.5809 21.926 17.7566 21.9871 17.9388 21.9984C18.121 22.0098 18.3029 21.971 18.4646 21.8863C18.6263 21.8016 18.7618 21.6741 18.8561 21.5179C18.9505 21.3616 19.0003 21.1824 19 20.9998V2.99981C18.9992 2.81766 18.9489 2.63915 18.8542 2.4835C18.7596 2.32784 18.6244 2.20092 18.463 2.11638C18.3017 2.03185 18.1203 1.9929 17.9385 2.00372C17.7566 2.01455 17.5812 2.07474 17.431 2.17781L4.431 11.1778Z" fill="#87CEEB"/>
</svg>
