<svg width="24" height="24" viewBox="0 0 24 24" fill="none" xmlns="http://www.w3.org/2000/svg">
<path d="M19.569 12.8222C19.7022 12.7304 19.8112 12.6077 19.8864 12.4645C19.9617 12.3213 20.001 12.162 20.001 12.0002C20.001 11.8384 19.9617 11.6791 19.8864 11.5359C19.8112 11.3927 19.7022 11.2699 19.569 11.1782L6.569 2.17818C6.41906 2.07401 6.24343 2.01292 6.06121 2.00155C5.87898 1.99018 5.69712 2.02897 5.53539 2.1137C5.37366 2.19843 5.23825 2.32586 5.14386 2.48215C5.04947 2.63844 4.99971 2.8176 5 3.00019L5 21.0002C5.00075 21.1823 5.05115 21.3608 5.14576 21.5165C5.24038 21.6722 5.37564 21.7991 5.53699 21.8836C5.69835 21.9682 5.8797 22.0071 6.06153 21.9963C6.24337 21.9855 6.41881 21.9253 6.569 21.8222L19.569 12.8222Z" fill="#87CEEB"/>
</svg>
