<svg width="24" height="24" viewBox="0 0 24 24" fill="none" xmlns="http://www.w3.org/2000/svg">
<path d="M22.7997 17.3998V6.5998C22.7997 5.6038 21.9957 4.7998 20.9997 4.7998H4.1877C3.1917 4.7998 2.3877 5.6038 2.3877 6.5998V17.3998C2.3877 18.3958 3.1917 19.1998 4.1877 19.1998H20.9997C21.9957 19.1998 22.7997 18.3958 22.7997 17.3998ZM21.2277 6.4678C21.6237 6.8638 21.4077 7.2718 21.1917 7.4758L16.3197 11.9398L20.9997 16.8118C21.1437 16.9798 21.2397 17.2438 21.0717 17.4238C20.9157 17.6158 20.5557 17.6038 20.3997 17.4838L15.1557 13.0078L12.5877 15.3478L10.0317 13.0078L4.7877 17.4838C4.6317 17.6038 4.2717 17.6158 4.1157 17.4238C3.9477 17.2438 4.0437 16.9798 4.1877 16.8118L8.8677 11.9398L3.9957 7.4758C3.7797 7.2718 3.5637 6.8638 3.9597 6.4678C4.3557 6.0718 4.7637 6.2638 5.0997 6.5518L12.5877 12.5998L20.0877 6.5518C20.4237 6.2638 20.8317 6.0718 21.2277 6.4678Z" fill="#EEEEEE"/>
</svg>
