<svg width="28" height="50" viewBox="0 0 28 50" fill="none" xmlns="http://www.w3.org/2000/svg">
<path d="M14.5313 25.7285L22.4859 18.5694C22.6545 18.4166 22.75 18.2035 22.75 17.9775V13.2048C22.75 12.8914 22.5655 12.6066 22.2791 12.4778C21.9911 12.3505 21.6555 12.403 21.4232 12.613L14 19.2932L6.57836 12.613C6.34449 12.403 6.00881 12.3489 5.72245 12.4778C5.43449 12.6066 5.24994 12.8914 5.24994 13.2048V17.9775C5.24994 18.2035 5.34699 18.4166 5.51245 18.5694L13.467 25.7285C13.7693 26.0005 14.2307 26.0005 14.5313 25.7285Z" fill="white"/>
<path d="M14.5313 15.3874L22.4859 8.2283C22.6545 8.07557 22.75 7.86239 22.75 7.63648V2.86373C22.75 2.55032 22.5655 2.26555 22.2791 2.13669C21.9911 2.00941 21.6555 2.06191 21.4232 2.27191L14 8.95216L6.57836 2.27191C6.34449 2.06191 6.00881 2.00782 5.72245 2.13669C5.43449 2.26555 5.24994 2.55032 5.24994 2.86373V7.63648C5.24994 7.86239 5.34699 8.07557 5.51245 8.2283L13.467 15.3874C13.7693 15.6595 14.2307 15.6595 14.5313 15.3874Z" fill="white"/>
</svg>
