<svg width="24" height="24" viewBox="0 0 24 24" fill="none" xmlns="http://www.w3.org/2000/svg">
<path d="M19.569 12.8219C19.7022 12.7302 19.8112 12.6074 19.8864 12.4643C19.9617 12.3211 20.001 12.1617 20.001 11.9999C20.001 11.8382 19.9617 11.6788 19.8864 11.5356C19.8112 11.3924 19.7022 11.2697 19.569 11.1779L6.569 2.17794C6.41906 2.07376 6.24343 2.01268 6.06121 2.00131C5.87898 1.98994 5.69712 2.02872 5.53539 2.11345C5.37366 2.19818 5.23825 2.32562 5.14386 2.4819C5.04947 2.63819 4.99971 2.81736 5 2.99994L5 20.9999C5.00075 21.1821 5.05115 21.3606 5.14576 21.5163C5.24038 21.6719 5.37564 21.7988 5.53699 21.8834C5.69835 21.9679 5.8797 22.0069 6.06153 21.996C6.24337 21.9852 6.41881 21.925 6.569 21.8219L19.569 12.8219Z" fill="#87CEEB"/>
</svg>
