<svg width="15" height="15" viewBox="0 0 15 15" fill="none" xmlns="http://www.w3.org/2000/svg">
<path d="M14.991 11.3308C14.8573 12.3471 14.3582 13.28 13.5869 13.9551C12.8157 14.6303 11.825 15.0017 10.8 14.9998C4.84501 14.9998 6.78648e-06 10.1548 6.78648e-06 4.19985C-0.0018307 3.17482 0.369522 2.18416 1.04471 1.41292C1.71989 0.641675 2.65273 0.142578 3.66901 0.00884823C3.926 -0.0225311 4.18624 0.0300447 4.4109 0.158727C4.63555 0.287409 4.81256 0.485297 4.91551 0.722848L6.49951 4.2591V4.2681C6.57832 4.44994 6.61087 4.64847 6.59425 4.84596C6.57763 5.04344 6.51236 5.23374 6.40426 5.39985C6.39076 5.4201 6.37651 5.43885 6.36151 5.4576L4.80001 7.3086C5.36176 8.4501 6.55576 9.6336 7.71226 10.1968L9.53776 8.6436C9.55568 8.62853 9.57447 8.61451 9.59401 8.6016C9.75998 8.4909 9.95093 8.42333 10.1496 8.40499C10.3482 8.38666 10.5483 8.41815 10.7318 8.4966L10.7415 8.5011L14.2748 10.0843C14.5127 10.1869 14.7111 10.3638 14.8402 10.5885C14.9693 10.8132 15.0222 11.0736 14.991 11.3308Z" fill="white"/>
</svg>
