<svg width="18" height="18" viewBox="0 0 18 18" fill="none" xmlns="http://www.w3.org/2000/svg">
<path d="M17.8461 8.59922L12.4464 2.59955C12.3312 2.47236 12.1704 2.40036 12 2.40036H8.4002C8.16382 2.40036 7.94903 2.53955 7.85183 2.75554C7.75584 2.97273 7.79544 3.22592 7.95383 3.40111L12.9924 9L7.95383 14.5977C7.79544 14.7741 7.75464 15.0273 7.85183 15.2433C7.94903 15.4605 8.16382 15.5996 8.4002 15.5996H12C12.1704 15.5996 12.3312 15.5264 12.4464 15.4017L17.8461 9.40198C18.0513 9.17399 18.0513 8.82601 17.8461 8.59922Z" fill="#002D62"/>
<path d="M10.0465 8.59922L4.64682 2.59955C4.53163 2.47236 4.37084 2.40036 4.20045 2.40036H0.600642C0.364255 2.40036 0.149467 2.53955 0.0522719 2.75554C-0.0437229 2.97273 -0.00412505 3.22592 0.154266 3.40111L5.19279 9L0.154266 14.5977C-0.00412505 14.7741 -0.0449228 15.0273 0.0522719 15.2433C0.149467 15.4605 0.364255 15.5996 0.600642 15.5996H4.20045C4.37084 15.5996 4.53163 15.5264 4.64682 15.4017L10.0465 9.40198C10.2517 9.17399 10.2517 8.82601 10.0465 8.59922Z" fill="#002D62"/>
</svg>
