<svg width="205" height="8" viewBox="0 0 205 8" fill="none" xmlns="http://www.w3.org/2000/svg">
<path d="M0 7.66587L3.46068 0.433917H4.0088L7.46947 7.66587H6.87836L3.61114 0.764521H3.84758L0.591109 7.66587H0ZM1.2682 5.63059L1.4509 5.18635H5.95408L6.13679 5.63059H1.2682Z" fill="#202020"/>
<path d="M11.5651 7.66587V0H12.1025V7.66587H11.5651Z" fill="#202020"/>
<path d="M18.8293 7.7072C18.335 7.7072 17.9552 7.57634 17.6901 7.31461C17.4322 7.05288 17.3032 6.69473 17.3032 6.24015V1.09512H17.8406V6.18849C17.8406 6.53287 17.9301 6.79804 18.1093 6.984C18.2884 7.16997 18.5463 7.26295 18.8831 7.26295C19.2342 7.26295 19.5243 7.16308 19.7536 6.96334L19.9793 7.32494C19.836 7.4558 19.6605 7.55223 19.4527 7.61422C19.2521 7.67621 19.0443 7.7072 18.8293 7.7072ZM16.2715 2.71715V2.2729H19.6247V2.71715H16.2715Z" fill="#202020"/>
<path d="M26.4588 7.7072C25.8927 7.7072 25.3912 7.59011 24.9541 7.35593C24.5242 7.12176 24.1839 6.79804 23.9331 6.38478C23.6895 5.97153 23.5677 5.49973 23.5677 4.96939C23.5677 4.43216 23.6823 3.96036 23.9116 3.55399C24.1481 3.14074 24.4705 2.81702 24.8789 2.58284C25.2873 2.34866 25.7459 2.23158 26.2546 2.23158C26.7633 2.23158 27.2183 2.34522 27.6195 2.57251C28.0279 2.7998 28.3467 3.12007 28.576 3.53333C28.8125 3.93969 28.9307 4.41149 28.9307 4.94872C28.9307 4.96939 28.9271 4.99349 28.9199 5.02104C28.9199 5.04171 28.9199 5.06581 28.9199 5.09336H23.9654V4.69044H28.6298L28.4148 4.88674C28.422 4.46659 28.3288 4.09122 28.1354 3.76062C27.9491 3.42313 27.6947 3.1614 27.3723 2.97543C27.0499 2.78258 26.6773 2.68616 26.2546 2.68616C25.839 2.68616 25.4664 2.78258 25.1368 2.97543C24.8144 3.1614 24.5601 3.42313 24.3738 3.76062C24.1875 4.09122 24.0943 4.47004 24.0943 4.89707V4.99005C24.0943 5.43086 24.1946 5.82345 24.3953 6.16783C24.603 6.50532 24.8861 6.77049 25.2443 6.96334C25.6026 7.14931 26.011 7.24229 26.4695 7.24229C26.8278 7.24229 27.1609 7.1803 27.469 7.05632C27.7843 6.93235 28.0494 6.74294 28.2643 6.4881L28.576 6.82903C28.3324 7.11831 28.0243 7.33871 27.6517 7.49024C27.2863 7.63488 26.8887 7.7072 26.4588 7.7072Z" fill="#202020"/>
<path d="M33.4949 7.66587V2.2729H34.0108V3.75029L33.957 3.58498C34.1147 3.15107 34.3798 2.81702 34.7523 2.58284C35.1249 2.34866 35.5907 2.23158 36.1495 2.23158V2.73781C36.128 2.73781 36.1065 2.73781 36.085 2.73781C36.0635 2.73092 36.042 2.72748 36.0205 2.72748C35.3972 2.72748 34.91 2.91689 34.5589 3.29571C34.2078 3.66764 34.0323 4.18765 34.0323 4.85574V7.66587H33.4949Z" fill="#202020"/>
<path d="M43.2726 2.23158C43.7311 2.23158 44.1288 2.31767 44.4655 2.48986C44.8094 2.65516 45.0745 2.91 45.2608 3.25438C45.4543 3.59187 45.551 4.01201 45.551 4.51481V7.66587H45.0136V4.55613C45.0136 3.95003 44.8524 3.48856 44.53 3.17173C44.2147 2.8549 43.7705 2.69649 43.1973 2.69649C42.7603 2.69649 42.3805 2.78258 42.0581 2.95477C41.7357 3.12696 41.4885 3.36803 41.3165 3.67797C41.1517 3.98791 41.0693 4.35984 41.0693 4.79375V7.66587H40.532V2.2729H41.0478V3.77095L40.9726 3.60565C41.1446 3.17862 41.4276 2.84457 41.8216 2.6035C42.2157 2.35555 42.6994 2.23158 43.2726 2.23158Z" fill="#202020"/>
<path d="M54.2011 7.66587V6.43644L54.1796 6.25048V4.22553C54.1796 3.72274 54.0363 3.34048 53.7497 3.07875C53.4703 2.81702 53.0583 2.68616 52.5138 2.68616C52.1268 2.68616 51.765 2.75159 51.4283 2.88245C51.0987 3.00643 50.8157 3.16829 50.5792 3.36803L50.3105 2.9961C50.59 2.75503 50.9267 2.56907 51.3208 2.4382C51.7149 2.30045 52.1268 2.23158 52.5567 2.23158C53.2517 2.23158 53.7855 2.40032 54.1581 2.73781C54.5307 3.0753 54.717 3.5781 54.717 4.24619V7.66587H54.2011ZM52.1806 7.7072C51.765 7.7072 51.4032 7.64521 51.0951 7.52124C50.7942 7.39037 50.5613 7.20785 50.3965 6.97367C50.2389 6.73949 50.1601 6.47088 50.1601 6.16783C50.1601 5.89232 50.2245 5.64437 50.3535 5.42397C50.4897 5.19668 50.7118 5.01416 51.0199 4.87641C51.328 4.73177 51.7399 4.65945 52.2558 4.65945H54.3193V5.06237H52.2666C51.6862 5.06237 51.2778 5.16568 51.0414 5.37231C50.8121 5.57894 50.6974 5.83722 50.6974 6.14716C50.6974 6.49154 50.8336 6.76705 51.1058 6.97367C51.3781 7.1803 51.7614 7.28361 52.2558 7.28361C52.7287 7.28361 53.1264 7.1803 53.4488 6.97367C53.7784 6.76705 54.022 6.46744 54.1796 6.07484L54.3301 6.42611C54.1796 6.8187 53.9217 7.13209 53.5563 7.36626C53.198 7.59355 52.7395 7.7072 52.1806 7.7072Z" fill="#202020"/>
<path d="M61.4665 7.7072C60.9721 7.7072 60.5923 7.57634 60.3272 7.31461C60.0693 7.05288 59.9403 6.69473 59.9403 6.24015V1.09512H60.4777V6.18849C60.4777 6.53287 60.5673 6.79804 60.7464 6.984C60.9255 7.16997 61.1834 7.26295 61.5202 7.26295C61.8713 7.26295 62.1615 7.16308 62.3907 6.96334L62.6164 7.32494C62.4731 7.4558 62.2976 7.55223 62.0898 7.61422C61.8892 7.67621 61.6814 7.7072 61.4665 7.7072ZM58.9086 2.71715V2.2729H62.2618V2.71715H58.9086Z" fill="#202020"/>
<path d="M67.0168 7.66587V2.2729H67.5542V7.66587H67.0168ZM67.2855 0.960817C67.1637 0.960817 67.0598 0.919492 66.9738 0.836841C66.8879 0.75419 66.8449 0.657764 66.8449 0.547563C66.8449 0.430474 66.8879 0.330604 66.9738 0.247953C67.0598 0.165302 67.1637 0.123977 67.2855 0.123977C67.4145 0.123977 67.5184 0.165302 67.5972 0.247953C67.6832 0.323716 67.7262 0.420142 67.7262 0.537231C67.7262 0.65432 67.6832 0.75419 67.5972 0.836841C67.5184 0.919492 67.4145 0.960817 67.2855 0.960817Z" fill="#202020"/>
<path d="M74.1396 7.66587L71.614 2.2729H72.1836L74.548 7.3766H74.2901L76.676 2.2729H77.2241L74.6877 7.66587H74.1396Z" fill="#202020"/>
<path d="M83.4219 7.7072C82.8558 7.7072 82.3543 7.59011 81.9172 7.35593C81.4873 7.12176 81.147 6.79804 80.8962 6.38478C80.6526 5.97153 80.5308 5.49973 80.5308 4.96939C80.5308 4.43216 80.6455 3.96036 80.8747 3.55399C81.1112 3.14074 81.4336 2.81702 81.842 2.58284C82.2504 2.34866 82.709 2.23158 83.2177 2.23158C83.7264 2.23158 84.1814 2.34522 84.5826 2.57251C84.991 2.7998 85.3098 3.12007 85.5391 3.53333C85.7756 3.93969 85.8938 4.41149 85.8938 4.94872C85.8938 4.96939 85.8902 4.99349 85.883 5.02104C85.883 5.04171 85.883 5.06581 85.883 5.09336H80.9285V4.69044H85.5929L85.3779 4.88674C85.3851 4.46659 85.2919 4.09122 85.0985 3.76062C84.9122 3.42313 84.6578 3.1614 84.3354 2.97543C84.013 2.78258 83.6404 2.68616 83.2177 2.68616C82.8021 2.68616 82.4295 2.78258 82.0999 2.97543C81.7775 3.1614 81.5232 3.42313 81.3369 3.76062C81.1506 4.09122 81.0574 4.47004 81.0574 4.89707V4.99005C81.0574 5.43086 81.1578 5.82345 81.3584 6.16783C81.5662 6.50532 81.8492 6.77049 82.2074 6.96334C82.5657 7.14931 82.9741 7.24229 83.4326 7.24229C83.7909 7.24229 84.124 7.1803 84.4321 7.05632C84.7474 6.93235 85.0125 6.74294 85.2274 6.4881L85.5391 6.82903C85.2955 7.11831 84.9874 7.33871 84.6148 7.49024C84.2494 7.63488 83.8518 7.7072 83.4219 7.7072Z" fill="#202020"/>
<path d="M101.87 0.433917H102.418V7.66587H101.87V0.433917ZM96.8402 7.66587H96.2921V0.433917H96.8402V7.66587ZM101.935 4.22553H96.7757V3.76062H101.935V4.22553Z" fill="#202020"/>
<path d="M109.968 7.7072C109.43 7.7072 108.95 7.59011 108.528 7.35593C108.112 7.12176 107.779 6.79804 107.528 6.38478C107.284 5.97153 107.163 5.49973 107.163 4.96939C107.163 4.43216 107.284 3.96036 107.528 3.55399C107.779 3.14074 108.112 2.81702 108.528 2.58284C108.95 2.34866 109.43 2.23158 109.968 2.23158C110.505 2.23158 110.985 2.34866 111.408 2.58284C111.831 2.81702 112.164 3.14074 112.407 3.55399C112.651 3.96036 112.773 4.43216 112.773 4.96939C112.773 5.49973 112.651 5.97153 112.407 6.38478C112.164 6.79804 111.831 7.12176 111.408 7.35593C110.985 7.59011 110.505 7.7072 109.968 7.7072ZM109.968 7.24229C110.398 7.24229 110.785 7.14931 111.128 6.96334C111.472 6.77049 111.741 6.50187 111.935 6.15749C112.128 5.81312 112.225 5.41708 112.225 4.96939C112.225 4.51481 112.128 4.11877 111.935 3.78128C111.741 3.4369 111.472 3.17173 111.128 2.98577C110.785 2.79291 110.398 2.69649 109.968 2.69649C109.538 2.69649 109.151 2.79291 108.807 2.98577C108.47 3.17173 108.202 3.4369 108.001 3.78128C107.807 4.11877 107.711 4.51481 107.711 4.96939C107.711 5.41708 107.807 5.81312 108.001 6.15749C108.202 6.50187 108.47 6.77049 108.807 6.96334C109.151 7.14931 109.538 7.24229 109.968 7.24229Z" fill="#202020"/>
<path d="M124.328 2.23158C124.779 2.23158 125.169 2.31767 125.499 2.48986C125.836 2.65516 126.097 2.91 126.284 3.25438C126.47 3.59187 126.563 4.01201 126.563 4.51481V7.66587H126.026V4.55613C126.026 3.95003 125.872 3.48856 125.564 3.17173C125.255 2.8549 124.826 2.69649 124.274 2.69649C123.851 2.69649 123.486 2.78258 123.178 2.95477C122.869 3.12696 122.633 3.36803 122.468 3.67797C122.303 3.98791 122.221 4.35984 122.221 4.79375V7.66587H121.684V4.55613C121.684 3.95003 121.53 3.48856 121.222 3.17173C120.913 2.8549 120.484 2.69649 119.932 2.69649C119.509 2.69649 119.144 2.78258 118.836 2.95477C118.528 3.12696 118.291 3.36803 118.126 3.67797C117.961 3.98791 117.879 4.35984 117.879 4.79375V7.66587H117.342V2.2729H117.858V3.76062L117.782 3.59532C117.947 3.17517 118.223 2.84457 118.61 2.6035C118.997 2.35555 119.463 2.23158 120.007 2.23158C120.566 2.23158 121.035 2.36933 121.415 2.64483C121.802 2.91345 122.046 3.31637 122.146 3.8536L121.963 3.78128C122.114 3.31981 122.397 2.94788 122.812 2.66549C123.228 2.37621 123.733 2.23158 124.328 2.23158Z" fill="#202020"/>
<path d="M133.962 7.7072C133.396 7.7072 132.895 7.59011 132.457 7.35593C132.028 7.12176 131.687 6.79804 131.436 6.38478C131.193 5.97153 131.071 5.49973 131.071 4.96939C131.071 4.43216 131.186 3.96036 131.415 3.55399C131.651 3.14074 131.974 2.81702 132.382 2.58284C132.791 2.34866 133.249 2.23158 133.758 2.23158C134.267 2.23158 134.722 2.34522 135.123 2.57251C135.531 2.7998 135.85 3.12007 136.079 3.53333C136.316 3.93969 136.434 4.41149 136.434 4.94872C136.434 4.96939 136.43 4.99349 136.423 5.02104C136.423 5.04171 136.423 5.06581 136.423 5.09336H131.469V4.69044H136.133L135.918 4.88674C135.925 4.46659 135.832 4.09122 135.639 3.76062C135.452 3.42313 135.198 3.1614 134.876 2.97543C134.553 2.78258 134.181 2.68616 133.758 2.68616C133.342 2.68616 132.97 2.78258 132.64 2.97543C132.318 3.1614 132.063 3.42313 131.877 3.76062C131.691 4.09122 131.598 4.47004 131.598 4.89707V4.99005C131.598 5.43086 131.698 5.82345 131.899 6.16783C132.106 6.50532 132.389 6.77049 132.748 6.96334C133.106 7.14931 133.514 7.24229 133.973 7.24229C134.331 7.24229 134.664 7.1803 134.972 7.05632C135.288 6.93235 135.553 6.74294 135.768 6.4881L136.079 6.82903C135.836 7.11831 135.528 7.33871 135.155 7.49024C134.79 7.63488 134.392 7.7072 133.962 7.7072Z" fill="#202020"/>
<path d="M147.316 3.99824H151.389V4.47348H147.316V3.99824ZM147.38 7.66587H146.832V0.433917H151.862V0.90916H147.38V7.66587Z" fill="#202020"/>
<path d="M156.342 7.66587V2.2729H156.88V7.66587H156.342ZM156.611 0.960817C156.489 0.960817 156.385 0.919492 156.299 0.836841C156.213 0.75419 156.17 0.657764 156.17 0.547563C156.17 0.430474 156.213 0.330604 156.299 0.247953C156.385 0.165302 156.489 0.123977 156.611 0.123977C156.74 0.123977 156.844 0.165302 156.923 0.247953C157.009 0.323716 157.052 0.420142 157.052 0.537231C157.052 0.65432 157.009 0.75419 156.923 0.836841C156.844 0.919492 156.74 0.960817 156.611 0.960817Z" fill="#202020"/>
<path d="M164.787 2.23158C165.246 2.23158 165.643 2.31767 165.98 2.48986C166.324 2.65516 166.589 2.91 166.775 3.25438C166.969 3.59187 167.066 4.01201 167.066 4.51481V7.66587H166.528V4.55613C166.528 3.95003 166.367 3.48856 166.044 3.17173C165.729 2.8549 165.285 2.69649 164.712 2.69649C164.275 2.69649 163.895 2.78258 163.573 2.95477C163.25 3.12696 163.003 3.36803 162.831 3.67797C162.666 3.98791 162.584 4.35984 162.584 4.79375V7.66587H162.046V2.2729H162.562V3.77095L162.487 3.60565C162.659 3.17862 162.942 2.84457 163.336 2.6035C163.73 2.35555 164.214 2.23158 164.787 2.23158Z" fill="#202020"/>
<path d="M175.716 7.66587V6.43644L175.694 6.25048V4.22553C175.694 3.72274 175.551 3.34048 175.264 3.07875C174.985 2.81702 174.573 2.68616 174.028 2.68616C173.641 2.68616 173.28 2.75159 172.943 2.88245C172.613 3.00643 172.33 3.16829 172.094 3.36803L171.825 2.9961C172.104 2.75503 172.441 2.56907 172.835 2.4382C173.229 2.30045 173.641 2.23158 174.071 2.23158C174.766 2.23158 175.3 2.40032 175.673 2.73781C176.045 3.0753 176.231 3.5781 176.231 4.24619V7.66587H175.716ZM173.695 7.7072C173.28 7.7072 172.918 7.64521 172.61 7.52124C172.309 7.39037 172.076 7.20785 171.911 6.97367C171.753 6.73949 171.675 6.47088 171.675 6.16783C171.675 5.89232 171.739 5.64437 171.868 5.42397C172.004 5.19668 172.226 5.01416 172.534 4.87641C172.842 4.73177 173.254 4.65945 173.77 4.65945H175.834V5.06237H173.781C173.201 5.06237 172.792 5.16568 172.556 5.37231C172.327 5.57894 172.212 5.83722 172.212 6.14716C172.212 6.49154 172.348 6.76705 172.62 6.97367C172.893 7.1803 173.276 7.28361 173.77 7.28361C174.243 7.28361 174.641 7.1803 174.963 6.97367C175.293 6.76705 175.536 6.46744 175.694 6.07484L175.845 6.42611C175.694 6.8187 175.436 7.13209 175.071 7.36626C174.713 7.59355 174.254 7.7072 173.695 7.7072Z" fill="#202020"/>
<path d="M184.088 2.23158C184.547 2.23158 184.944 2.31767 185.281 2.48986C185.625 2.65516 185.89 2.91 186.076 3.25438C186.27 3.59187 186.366 4.01201 186.366 4.51481V7.66587H185.829V4.55613C185.829 3.95003 185.668 3.48856 185.345 3.17173C185.03 2.8549 184.586 2.69649 184.013 2.69649C183.576 2.69649 183.196 2.78258 182.873 2.95477C182.551 3.12696 182.304 3.36803 182.132 3.67797C181.967 3.98791 181.885 4.35984 181.885 4.79375V7.66587H181.347V2.2729H181.863V3.77095L181.788 3.60565C181.96 3.17862 182.243 2.84457 182.637 2.6035C183.031 2.35555 183.515 2.23158 184.088 2.23158Z" fill="#202020"/>
<path d="M193.705 7.7072C193.161 7.7072 192.674 7.59011 192.244 7.35593C191.821 7.12176 191.484 6.79804 191.233 6.38478C190.99 5.97153 190.868 5.49973 190.868 4.96939C190.868 4.43216 190.99 3.95691 191.233 3.54366C191.484 3.1304 191.821 2.81013 192.244 2.58284C192.674 2.34866 193.161 2.23158 193.705 2.23158C194.157 2.23158 194.565 2.31423 194.931 2.47953C195.303 2.64483 195.604 2.89278 195.833 3.22339L195.436 3.50233C195.235 3.22683 194.984 3.02365 194.683 2.89278C194.382 2.76192 194.056 2.69649 193.705 2.69649C193.268 2.69649 192.874 2.79291 192.523 2.98577C192.179 3.17173 191.907 3.4369 191.706 3.78128C191.513 4.11877 191.416 4.51481 191.416 4.96939C191.416 5.42397 191.513 5.82345 191.706 6.16783C191.907 6.50532 192.179 6.77049 192.523 6.96334C192.874 7.14931 193.268 7.24229 193.705 7.24229C194.056 7.24229 194.382 7.17686 194.683 7.04599C194.984 6.91513 195.235 6.71194 195.436 6.43644L195.833 6.71539C195.604 7.04599 195.303 7.29395 194.931 7.45925C194.565 7.62455 194.157 7.7072 193.705 7.7072Z" fill="#202020"/>
<path d="M202.528 7.7072C201.962 7.7072 201.46 7.59011 201.023 7.35593C200.593 7.12176 200.253 6.79804 200.002 6.38478C199.759 5.97153 199.637 5.49973 199.637 4.96939C199.637 4.43216 199.751 3.96036 199.981 3.55399C200.217 3.14074 200.54 2.81702 200.948 2.58284C201.356 2.34866 201.815 2.23158 202.324 2.23158C202.832 2.23158 203.287 2.34522 203.689 2.57251C204.097 2.7998 204.416 3.12007 204.645 3.53333C204.882 3.93969 205 4.41149 205 4.94872C205 4.96939 204.996 4.99349 204.989 5.02104C204.989 5.04171 204.989 5.06581 204.989 5.09336H200.034V4.69044H204.699L204.484 4.88674C204.491 4.46659 204.398 4.09122 204.204 3.76062C204.018 3.42313 203.764 3.1614 203.441 2.97543C203.119 2.78258 202.746 2.68616 202.324 2.68616C201.908 2.68616 201.536 2.78258 201.206 2.97543C200.884 3.1614 200.629 3.42313 200.443 3.76062C200.257 4.09122 200.163 4.47004 200.163 4.89707V4.99005C200.163 5.43086 200.264 5.82345 200.464 6.16783C200.672 6.50532 200.955 6.77049 201.313 6.96334C201.672 7.14931 202.08 7.24229 202.539 7.24229C202.897 7.24229 203.23 7.1803 203.538 7.05632C203.853 6.93235 204.118 6.74294 204.333 6.4881L204.645 6.82903C204.401 7.11831 204.093 7.33871 203.721 7.49024C203.355 7.63488 202.958 7.7072 202.528 7.7072Z" fill="#202020"/>
</svg>
