<svg width="629" height="629" viewBox="0 0 629 629" fill="none" xmlns="http://www.w3.org/2000/svg">
<g opacity="0.05" clip-path="url(#clip0_327_1203)">
<path d="M627.05 158.837C622.499 149.735 611.432 146.045 602.328 150.596L528.617 187.452C519.513 192.003 515.824 203.072 520.376 212.176C524.926 221.278 535.994 224.968 545.098 220.417L618.809 183.561C627.913 179.009 631.602 167.941 627.05 158.837Z" fill="white"/>
<path d="M618.809 371.728L545.098 334.872C536 330.323 524.929 334.01 520.376 343.113C515.824 352.217 519.513 363.286 528.617 367.837L602.328 404.693C611.431 409.244 622.5 405.554 627.05 396.452C631.602 387.349 627.913 376.28 618.809 371.728Z" fill="white"/>
<path d="M425.064 296.073H147.421V202.705C147.421 151.9 189.306 110.567 240.788 110.567C291.593 110.567 332.926 151.9 332.926 202.705V239.561C332.926 249.738 341.177 257.989 351.354 257.989H425.065C435.242 257.989 443.493 249.738 443.493 239.561V202.705C443.493 90.9351 352.561 0.00158691 240.789 0.00158691C128.339 0.00281543 36.8555 90.9351 36.8555 202.707V299.243C15.4068 306.849 0 327.332 0 351.356V573.716C0 604.199 24.8 628.999 55.2832 628.999H425.064C455.547 628.999 480.347 604.199 480.347 573.716V351.356C480.347 320.873 455.547 296.073 425.064 296.073ZM73.7109 202.707C73.7109 111.257 148.663 36.8583 240.788 36.8583C332.237 36.8583 406.636 111.258 406.636 202.707V221.134H369.781V202.707C369.781 131.579 311.914 73.7138 240.788 73.7138C169.45 73.7138 110.566 131.601 110.566 202.707V296.074H73.7109V202.707ZM443.492 573.716C443.492 583.877 435.225 592.144 425.064 592.144H55.2832C45.1221 592.144 36.8555 583.877 36.8555 573.716V351.356C36.8555 341.195 45.1221 332.928 55.2832 332.928C72.4677 332.928 410.18 332.928 425.064 332.928C435.225 332.928 443.492 341.195 443.492 351.356V573.716Z" fill="white"/>
<path d="M240.788 369.783C210.305 369.783 185.505 394.583 185.505 425.066C185.505 449.09 200.911 469.573 222.36 477.18V536.861C222.36 547.038 230.611 555.289 240.788 555.289C250.965 555.289 259.216 547.038 259.216 536.861V477.18C280.664 469.573 296.071 449.09 296.071 425.066C296.071 394.583 271.271 369.783 240.788 369.783ZM240.788 443.493C230.627 443.493 222.36 435.226 222.36 425.065C222.36 414.904 230.627 406.637 240.788 406.637C250.949 406.637 259.216 414.904 259.216 425.065C259.216 435.226 250.949 443.493 240.788 443.493Z" fill="white"/>
<path d="M610.569 259.217H536.858C526.681 259.217 518.43 267.468 518.43 277.645C518.43 287.822 526.681 296.072 536.858 296.072H610.569C620.746 296.072 628.996 287.822 628.996 277.645C628.996 267.468 620.746 259.217 610.569 259.217Z" fill="white"/>
</g>
<defs>
<clipPath id="clip0_327_1203">
<rect width="629" height="629" fill="white"/>
</clipPath>
</defs>
</svg>
