<svg width="24" height="24" viewBox="0 0 24 24" fill="none" xmlns="http://www.w3.org/2000/svg">
<path d="M4.431 11.1781C4.29776 11.2698 4.18882 11.3926 4.11355 11.5357C4.03829 11.6789 3.99897 11.8383 3.99897 12.0001C3.99897 12.1618 4.03829 12.3212 4.11355 12.4644C4.18882 12.6076 4.29776 12.7303 4.431 12.8221L17.431 21.8221C17.5809 21.9262 17.7566 21.9873 17.9388 21.9987C18.121 22.0101 18.3029 21.9713 18.4646 21.8865C18.6263 21.8018 18.7618 21.6744 18.8561 21.5181C18.9505 21.3618 19.0003 21.1826 19 21.0001V3.00006C18.9992 2.8179 18.9489 2.6394 18.8542 2.48374C18.7596 2.32808 18.6244 2.20116 18.463 2.11663C18.3017 2.03209 18.1203 1.99314 17.9385 2.00397C17.7566 2.01479 17.5812 2.07498 17.431 2.17806L4.431 11.1781Z" fill="#87CEEB"/>
</svg>
