<svg width="295" height="94" viewBox="0 0 295 94" fill="none" xmlns="http://www.w3.org/2000/svg">
<mask id="mask0_0_4" style="mask-type:alpha" maskUnits="userSpaceOnUse" x="5" y="-2" width="288" height="98">
<path d="M38.016 14.128H18.944V38.832H31.744V53.04H18.944V94H5.12V-0.0800018H38.016V14.128ZM43.62 -0.0800018H57.444V94H43.62V-0.0800018ZM82.337 44.976L81.185 40.624H80.417V94H67.745V-0.0800018H80.033L93.473 48.944L94.625 53.296H95.393V-0.0800018H108.065V94H95.777L82.337 44.976ZM114.405 94L128.613 -0.0800018H145.509L159.717 94H146.277L143.717 74.8H130.405L127.845 94H114.405ZM137.829 30.512L137.445 28.08H136.677L136.293 30.512L132.325 60.208H141.797L137.829 30.512ZM180.712 44.976L179.56 40.624H178.792V94H166.12V-0.0800018H178.408L191.848 48.944L193 53.296H193.768V-0.0800018H206.44V94H194.152L180.712 44.976ZM252.588 61.744V74.672C252.46 78.512 251.692 81.968 250.284 84.912C249.132 87.472 247.34 89.904 244.78 91.824C242.22 93.872 238.764 95.024 234.156 95.024C229.548 95.024 225.964 93.872 223.404 91.824C220.844 89.904 219.18 87.472 218.028 84.912C216.62 81.968 215.852 78.512 215.724 74.672V19.248C215.852 15.536 216.62 12.08 218.028 9.13599C219.18 6.576 220.844 4.016 223.404 2.09599C225.964 0.175995 229.548 -1.104 234.156 -1.104C238.764 -1.104 242.22 0.175995 244.78 2.09599C247.34 4.016 249.132 6.576 250.284 9.13599C251.692 12.08 252.46 15.536 252.588 19.248V32.176H239.66V19.248C239.66 16.688 239.02 14.896 237.612 13.36C236.972 12.72 235.82 12.336 234.412 12.336C231.98 12.336 230.828 14.128 230.188 15.792C229.804 16.816 229.676 17.968 229.548 19.248V74.672C229.676 77.36 230.444 79.152 231.724 80.56C232.364 81.2 233.26 81.584 234.412 81.584C237.356 81.584 238.508 80.048 239.148 78.128C239.532 77.232 239.66 76.08 239.66 74.672V61.744H252.588ZM260.87 -0.0800018H292.486V14.128H274.694V38.832H287.494V53.936H274.694V79.792H292.486V94H260.87V-0.0800018Z" fill="#87CEEB"/>
</mask>
<g mask="url(#mask0_0_4)">
<g opacity="0.3" filter="url(#filter0_f_0_4)">
<rect x="-0.0700684" y="-28" width="20" height="155" transform="rotate(34.1138 -0.0700684 -28)" fill="#002D62"/>
</g>
</g>
<defs>
<filter id="filter0_f_0_4" x="-93" y="-34" width="115.488" height="151.545" filterUnits="userSpaceOnUse" color-interpolation-filters="sRGB">
<feFlood flood-opacity="0" result="BackgroundImageFix"/>
<feBlend mode="normal" in="SourceGraphic" in2="BackgroundImageFix" result="shape"/>
<feGaussianBlur stdDeviation="3" result="effect1_foregroundBlur_0_4"/>
</filter>
</defs>
</svg>
