<svg width="24" height="24" viewBox="0 0 24 24" fill="none" xmlns="http://www.w3.org/2000/svg">
<path d="M22.8007 17.4V6.59999C22.8007 5.60399 21.9967 4.79999 21.0007 4.79999H4.18867C3.19267 4.79999 2.38867 5.60399 2.38867 6.59999V17.4C2.38867 18.396 3.19267 19.2 4.18867 19.2H21.0007C21.9967 19.2 22.8007 18.396 22.8007 17.4ZM21.2287 6.46799C21.6247 6.86399 21.4087 7.27199 21.1927 7.47599L16.3207 11.94L21.0007 16.812C21.1447 16.98 21.2407 17.244 21.0727 17.424C20.9167 17.616 20.5567 17.604 20.4007 17.484L15.1567 13.008L12.5887 15.348L10.0327 13.008L4.78867 17.484C4.63267 17.604 4.27267 17.616 4.11667 17.424C3.94867 17.244 4.04467 16.98 4.18867 16.812L8.86867 11.94L3.99667 7.47599C3.78067 7.27199 3.56467 6.86399 3.96067 6.46799C4.35667 6.07199 4.76467 6.26399 5.10067 6.55199L12.5887 12.6L20.0887 6.55199C20.4247 6.26399 20.8327 6.07199 21.2287 6.46799Z" fill="#EEEEEE"/>
</svg>
