<svg width="60" height="60" viewBox="0 0 60 60" fill="none" xmlns="http://www.w3.org/2000/svg">
<path d="M42.0537 22.4669C34.5761 22.4669 28.4933 28.5496 28.4933 36.0272C28.4933 43.5047 34.576 49.5875 42.0536 49.5875C49.5311 49.5875 55.7143 43.5047 55.7143 36.0272C55.7143 28.5496 49.5312 22.4669 42.0537 22.4669ZM43.6 43.2885C43.5869 43.2933 43.5732 43.2911 43.5602 43.2956V45.0674C43.5602 45.9002 42.8863 46.5741 42.0535 46.5741C41.2207 46.5741 40.5467 45.9002 40.5467 45.0674V43.2853C39.5544 42.95 38.6036 42.3138 37.7908 41.3448C37.2552 40.7076 37.3375 39.7571 37.9762 39.223C38.6133 38.6874 39.5668 38.7698 40.0979 39.4085C40.8954 40.3575 41.7974 40.7342 42.5685 40.4575C43.1614 40.2413 43.5602 39.6718 43.5602 39.0406C43.5602 38.2093 42.8848 37.5339 42.0535 37.5339C39.561 37.5339 37.5334 35.5062 37.5334 33.0138C37.5334 31.1937 38.6163 29.5589 40.2923 28.8499C40.3753 28.8147 40.4632 28.8167 40.5468 28.7868V26.987C40.5468 26.1542 41.2208 25.4803 42.0536 25.4803C42.8864 25.4803 43.5603 26.1542 43.5603 26.987V28.7895C44.3405 29.0531 45.1013 29.472 45.7806 30.13C46.378 30.7082 46.3927 31.6617 45.8129 32.2606C45.2347 32.8579 44.2797 32.8712 43.6823 32.2929C42.9496 31.5822 42.1388 31.338 41.4679 31.6249C40.9088 31.8618 40.5467 32.4062 40.5467 33.0139C40.5467 33.8452 41.2222 34.5206 42.0535 34.5206C44.546 34.5206 46.5735 36.5483 46.5735 39.0407C46.5737 40.9343 45.3789 42.6411 43.6 43.2885Z" fill="white"/>
<path d="M5.79236 37.5339C4.95955 37.5339 4.28564 38.2078 4.28564 39.0407V54.2081C4.28564 55.0409 4.95955 55.7148 5.79236 55.7148H10.3124V37.5339H5.79236Z" fill="white"/>
<path d="M40.0202 13.6897L29.4733 4.64945C28.9112 4.16389 28.0755 4.16389 27.5133 4.64945L16.9665 13.6897C16.4869 14.0987 16.3147 14.7638 16.5339 15.3553C16.7516 15.9468 17.3152 16.3397 17.9465 16.3397H22.4665C22.4665 29.3657 22.4665 42.688 22.4665 55.7148C26.348 55.7148 29.0315 55.7148 33.0135 55.7148C33.8463 55.7148 34.5202 55.0409 34.5202 54.2081V50.7714C29.1621 48.0222 25.48 42.4524 25.48 36.0273C25.48 29.6023 29.1622 24.0324 34.5202 21.2832V16.3398H39.0403C39.6715 16.3398 40.2351 15.9469 40.4529 15.3554C40.6721 14.7638 40.5 14.0987 40.0202 13.6897Z" fill="white"/>
<path d="M14.933 25.4803C14.1002 25.4803 13.4263 26.1543 13.4263 26.9871V37.534V55.7147C15.6271 55.7147 17.3162 55.7147 19.4531 55.7147V25.4803H14.933Z" fill="white"/>
</svg>
