<svg width="48" height="48" viewBox="0 0 48 48" fill="none" xmlns="http://www.w3.org/2000/svg">
<path d="M35.314 10.608C29.066 4.46204 18.936 4.46204 12.688 10.608C11.2046 12.0573 10.0258 13.7885 9.22102 15.6999C8.41624 17.6112 8.00166 19.6642 8.00166 21.738C8.00166 23.8119 8.41624 25.8649 9.22102 27.7762C10.0258 29.6876 11.2046 31.4188 12.688 32.868L24 43.998L35.314 32.868C36.7974 31.4188 37.9762 29.6876 38.781 27.7762C39.5857 25.8649 40.0003 23.8119 40.0003 21.738C40.0003 19.6642 39.5857 17.6112 38.781 15.6999C37.9762 13.7885 36.7974 12.0573 35.314 10.608ZM24 26.998C22.664 26.998 21.41 26.478 20.464 25.534C19.5275 24.5955 19.0015 23.3239 19.0015 21.998C19.0015 20.6722 19.5275 19.4005 20.464 18.462C21.408 17.518 22.664 16.998 24 16.998C25.336 16.998 26.592 17.518 27.536 18.462C28.4725 19.4005 28.9984 20.6722 28.9984 21.998C28.9984 23.3239 28.4725 24.5955 27.536 25.534C26.592 26.478 25.336 26.998 24 26.998Z" fill="#002D62"/>
</svg>
