<svg width="48" height="48" viewBox="0 0 48 48" fill="none" xmlns="http://www.w3.org/2000/svg">
<path d="M33.1118 25.812L32.2018 26.718C32.2018 26.718 30.0358 28.87 24.1258 22.994C18.2158 17.118 20.3818 14.966 20.3818 14.966L20.9538 14.394C22.3678 12.99 22.5018 10.734 21.2678 9.08596L18.7478 5.71996C17.2198 3.67996 14.2698 3.40996 12.5198 5.14996L9.37976 8.26996C8.51376 9.13396 7.93376 10.25 8.00376 11.49C8.18376 14.664 9.61976 21.49 17.6278 29.454C26.1218 37.898 34.0918 38.234 37.3498 37.93C38.3818 37.834 39.2778 37.31 39.9998 36.59L42.8398 33.766C44.7598 31.86 44.2198 28.59 41.7638 27.256L37.9438 25.178C36.3318 24.304 34.3718 24.56 33.1118 25.812Z" fill="#002D62"/>
</svg>
