<svg width="48" height="48" viewBox="0 0 48 48" fill="none" xmlns="http://www.w3.org/2000/svg">
<path d="M35.3143 10.608C29.0663 4.46204 18.9363 4.46204 12.6883 10.608C11.2048 12.0573 10.0261 13.7885 9.22131 15.6999C8.41653 17.6112 8.00195 19.6642 8.00195 21.738C8.00195 23.8119 8.41653 25.8649 9.22131 27.7762C10.0261 29.6876 11.2048 31.4188 12.6883 32.868L24.0003 43.998L35.3143 32.868C36.7977 31.4188 37.9765 29.6876 38.7813 27.7762C39.586 25.8649 40.0006 23.8119 40.0006 21.738C40.0006 19.6642 39.586 17.6112 38.7813 15.6999C37.9765 13.7885 36.7977 12.0573 35.3143 10.608ZM24.0003 26.998C22.6643 26.998 21.4103 26.478 20.4643 25.534C19.5278 24.5955 19.0018 23.3239 19.0018 21.998C19.0018 20.6722 19.5278 19.4005 20.4643 18.462C21.4083 17.518 22.6643 16.998 24.0003 16.998C25.3363 16.998 26.5923 17.518 27.5363 18.462C28.4728 19.4005 28.9987 20.6722 28.9987 21.998C28.9987 23.3239 28.4728 24.5955 27.5363 25.534C26.5923 26.478 25.3363 26.998 24.0003 26.998Z" fill="#002D62"/>
</svg>
